<?xml version="1.0" encoding="UTF-8"?>
<!DOCTYPE svg PUBLIC "-//W3C//DTD SVG 1.1//EN" "http://www.w3.org/Graphics/SVG/1.1/DTD/svg11.dtd">
<!-- Creator: CorelDRAW -->
<svg xmlns="http://www.w3.org/2000/svg" xml:space="preserve" width="1.38568in" height="0.816874in" version="1.1" style="shape-rendering:geometricPrecision; text-rendering:geometricPrecision; image-rendering:optimizeQuality; fill-rule:evenodd; clip-rule:evenodd"
viewBox="0 0 1385.68 816.87"
 xmlns:xlink="http://www.w3.org/1999/xlink"
 xmlns:xodm="http://www.corel.com/coreldraw/odm/2003">
 <defs>
  <style type="text/css">
   <![CDATA[
    .fil0 {fill:#FEFEFE}
    .fil1 {fill:black;fill-rule:nonzero}
   ]]>
  </style>
 </defs>
 <g id="Layer_x0020_1">
  <metadata id="CorelCorpID_0Corel-Layer"/>
  <g id="_1523495533712">
   <path class="fil0" d="M1017.86 484.68c-65.48,87.6 -132.17,174.35 -194.96,263.9 -33.13,47.25 -72.5,65.57 -129.79,50.1l-41.93 -11.32 293.02 -393.26 -276.5 -360.02 46.83 -9.13c56.91,-11.09 99.22,-1.79 133.46,48.24 53.88,78.76 112.65,154.12 170.2,230.26 57.82,-76.09 116.38,-151.67 171.66,-229.62 33.08,-46.65 73.58,-63.59 129.52,-47.31l41.09 11.95 -25.77 34.17c-33.76,44.77 -67.38,89.64 -101.32,134.26 -45.59,59.94 -90.34,120.53 -137.59,179.19 -1.17,1.45 -4.17,5.38 -4.88,7.52 0.8,2.7 4.88,8.25 6.32,10.14 87.97,115.62 174.68,232.19 261.88,348.39l26.58 35.42 -42.92 10.92c-58.76,14.94 -101.38,-0.78 -135.07,-51.3 -58.97,-88.42 -124.06,-172.57 -186.76,-258.33 -1.02,-1.39 -2.04,-2.78 -3.07,-4.17zm-898.46 -33.63c2.56,78.94 28.79,159.69 91.44,211 68.74,56.3 158.35,58.62 239.84,31.27 65.04,-21.83 102.13,-72.98 121.44,-136.81 15.76,-52.08 50.29,-66.89 100.78,-51.58l25.47 7.72 -5.04 26.13c-19.33,100.21 -64.43,183.34 -155.17,235.24 -132.63,75.87 -326.89,56.19 -433.39,-56.26 -59.78,-63.12 -86.04,-141.08 -97.21,-225.82 -1.55,-11.8 -4.61,-23.54 -6.96,-35.21l-0.61 -3.04 0.03 -3.09c0.21,-21.01 0.31,-42.03 0.31,-63.04l0 -2.92 0.57 -2.86c7.67,-38.43 12.84,-77.18 23.44,-115.01 31.58,-112.66 112.63,-204.39 223.28,-244.26 108.61,-39.13 227.13,-20.29 318.19,51.31 112.08,88.12 140.3,212.24 134.9,348.86l-1.12 28.36 -580.2 0zm3.64 -108.53l461.91 0c-5.9,-57.13 -25.67,-113.3 -63.77,-156.98 -39.93,-45.78 -94.18,-70.69 -155.08,-71.15 -140.46,-1.08 -226.81,99.01 -243.06,228.13z"/>
  </g>
  <path class="fil1" d="M1335.48 769.86c-47.5,12.08 -76.87,0.52 -103.23,-39.06 -59.17,-88.65 -124.48,-173.23 -187.5,-259.37 -8.13,-11.15 -16.56,-22.08 -27.08,-35.94 -74.58,100.62 -149.06,196.46 -218.96,296.14 -25,35.63 -51.25,51.15 -97.92,38.54l280.42 -376.35 -261.04 -339.9c44.9,-8.75 75.94,-4.27 103.44,35.94 60.73,88.75 127.71,173.23 194.48,262.6 67.19,-89.06 133.33,-173.65 195.83,-261.56 25.1,-35.63 52.08,-49.17 97.19,-36.04 -34.17,45.31 -67.6,89.9 -101.25,134.17 -45.41,59.69 -90,120.1 -137.08,178.54 -16.77,20.83 -14.06,34.37 0.94,54.06 87.08,114.48 173.12,230.11 261.76,348.24zm-1305.61 -382.29c7.5,-37.6 12.5,-75.94 22.92,-112.81 62.5,-223.23 318.75,-316.04 494.79,-177.71 103.12,81.15 128.75,195.52 123.65,324.48l-581.25 0c-8.75,231.35 157.81,371.04 370.1,299.79 74.48,-25 118.33,-83.33 140.31,-156.25 11.15,-36.56 29.58,-42.29 63.96,-31.87 -17.6,91.25 -57.5,167.5 -140.83,215.21 -125,71.46 -303.43,48.33 -397.29,-50.94 -55.41,-58.33 -78.95,-130.94 -89.37,-209.37 -1.56,-12.5 -4.79,-24.79 -7.29,-37.19 0.21,-21.11 0.31,-42.22 0.31,-63.33zm61.15 -15.52l525.31 0c-3.44,-167.29 -107.6,-286.15 -250,-287.19 -156.25,-1.25 -268.54,114.79 -275.31,287.19z"/>
 </g>
</svg>
