<?xml version="1.0" encoding="UTF-8"?>
<!DOCTYPE svg PUBLIC "-//W3C//DTD SVG 1.1//EN" "http://www.w3.org/Graphics/SVG/1.1/DTD/svg11.dtd">
<!-- Creator: CorelDRAW -->
<svg xmlns="http://www.w3.org/2000/svg" xml:space="preserve" width="4.92126in" height="4.92126in" version="1.1" style="shape-rendering:geometricPrecision; text-rendering:geometricPrecision; image-rendering:optimizeQuality; fill-rule:evenodd; clip-rule:evenodd"
viewBox="0 0 4921.26 4921.26"
 xmlns:xlink="http://www.w3.org/1999/xlink"
 xmlns:xodm="http://www.corel.com/coreldraw/odm/2003">
 <defs>
  <style type="text/css">
   <![CDATA[
    .fil0 {fill:#D2D3D5;fill-rule:nonzero}
   ]]>
  </style>
 </defs>
 <g id="Layer_x0020_1">
  <metadata id="CorelCorpID_0Corel-Layer"/>
  <path class="fil0" d="M3073.61 1082.25l-409.41 0c-487.98,0 -588.04,266.55 -588.04,666.76l0.31 253.96 -230.48 0c-42.35,0 -76.73,34.37 -76.73,76.73l0 460.36c0,42.35 34.37,76.72 76.73,76.72l230.18 0 0 1150.91c0,42.35 34.37,76.73 76.73,76.73l469.26 0c42.35,0 76.73,-34.38 76.73,-76.73l0.31 -1150.91 374.43 0c42.35,0 76.73,-34.37 76.73,-76.72l0 -460.36c0,-42.35 -34.37,-76.73 -76.73,-76.73l-374.58 0 0.46 -214.22c0,-103.27 0,-103.27 96.52,-103.43l274.53 10.74c19.49,0.61 41.13,-6.91 56.17,-21.33 15.04,-14.42 23.63,-34.53 23.63,-55.4l0 -460.36c0,-42.35 -34.37,-76.73 -76.73,-76.73zm-613.81 -1079.54c1358.97,0 2460.63,1101.66 2460.63,2460.63 0,1358.97 -1101.66,2460.63 -2460.63,2460.63 -1358.97,0 -2460.63,-1101.66 -2460.63,-2460.63 0,-1358.97 1101.66,-2460.63 2460.63,-2460.63z"/>
 </g>
</svg>
