<?xml version="1.0" encoding="UTF-8"?>
<!DOCTYPE svg PUBLIC "-//W3C//DTD SVG 1.1//EN" "http://www.w3.org/Graphics/SVG/1.1/DTD/svg11.dtd">
<!-- Creator: CorelDRAW -->
<svg xmlns="http://www.w3.org/2000/svg" xml:space="preserve" width="4.92126in" height="4.92126in" version="1.1" style="shape-rendering:geometricPrecision; text-rendering:geometricPrecision; image-rendering:optimizeQuality; fill-rule:evenodd; clip-rule:evenodd"
viewBox="0 0 4921.26 4921.26"
 xmlns:xlink="http://www.w3.org/1999/xlink"
 xmlns:xodm="http://www.corel.com/coreldraw/odm/2003">
 <defs>
  <style type="text/css">
   <![CDATA[
    .fil0 {fill:#D2D3D5}
   ]]>
  </style>
 </defs>
 <g id="Layer_x0020_1">
  <metadata id="CorelCorpID_0Corel-Layer"/>
  <path class="fil0" d="M2457.58 2.7c1358.97,0 2460.63,1101.66 2460.63,2460.63 0,1358.97 -1101.66,2460.63 -2460.63,2460.63 -1358.97,0 -2460.63,-1101.66 -2460.63,-2460.63 0,-1358.97 1101.66,-2460.63 2460.63,-2460.63zm-882.53 1738.58c-56.11,0 -104.13,-18.2 -144.06,-54.59 -40.44,-36.9 -60.15,-82.9 -60.15,-139.51 0,-56.11 19.72,-103.11 60.15,-140.52 39.93,-37.41 87.95,-56.11 144.06,-56.11 58.13,0 107.66,18.7 148.1,56.11 40.44,37.4 60.66,84.41 60.66,140.52 0,53.58 -20.22,99.07 -60.66,136.98 -40.44,37.91 -89.97,57.11 -148.1,57.11zm170.34 1834.81l-343.71 0 0 -1516.37 343.71 0 0 1516.37zm1798.93 0l-343.2 0 0 -854.22c0,-283.56 -100.59,-425.09 -300.75,-425.09 -104.63,0 -191.06,38.92 -259.3,117.77 -68.24,78.35 -102.1,177.41 -102.1,296.7l0 864.84 -345.23 0 0 -1516.37 345.23 0 0 251.72 6.06 0c113.22,-191.57 277.5,-287.1 491.31,-287.1 165.28,0 291.14,53.58 377.57,160.74 86.94,106.65 130.41,261.83 130.41,464.01l0 927.01z"/>
 </g>
</svg>
