<?xml version="1.0" encoding="UTF-8"?>
<!DOCTYPE svg PUBLIC "-//W3C//DTD SVG 1.1//EN" "http://www.w3.org/Graphics/SVG/1.1/DTD/svg11.dtd">
<!-- Creator: CorelDRAW -->
<svg xmlns="http://www.w3.org/2000/svg" xml:space="preserve" width="6.69291in" height="6.69291in" version="1.1" style="shape-rendering:geometricPrecision; text-rendering:geometricPrecision; image-rendering:optimizeQuality; fill-rule:evenodd; clip-rule:evenodd"
viewBox="0 0 6692.91 6692.91"
 xmlns:xlink="http://www.w3.org/1999/xlink"
 xmlns:xodm="http://www.corel.com/coreldraw/odm/2003">
 <defs>
  <style type="text/css">
   <![CDATA[
    .fil0 {fill:url(#id0)}
   ]]>
  </style>
  <linearGradient id="id0" gradientUnits="userSpaceOnUse" x1="-2.63" y1="3349.08" x2="6690.29" y2="3349.08">
   <stop offset="0" style="stop-opacity:1; stop-color:#A855F7"/>
   <stop offset="1" style="stop-opacity:1; stop-color:#06B6D4"/>
  </linearGradient>
 </defs>
 <g id="Layer_x0020_1">
  <metadata id="CorelCorpID_0Corel-Layer"/>
  <path class="fil0" d="M3343.83 2.63c1848.2,0 3346.46,1498.26 3346.46,3346.46 0,1848.2 -1498.26,3346.46 -3346.46,3346.46 -1848.2,0 -3346.46,-1498.26 -3346.46,-3346.46 0,-1848.2 1498.26,-3346.46 3346.46,-3346.46zm-946.75 4142.6c-89.83,89.83 -196.69,157.35 -321.17,203.15 -124.47,45.21 -263.03,68.11 -415.69,68.11 -193.17,0 -344.65,-39.34 -454.44,-118.01 -110.38,-78.68 -165.57,-187.3 -165.57,-326.44 0,-142.09 54.6,-260.1 164.39,-352.87 109.8,-93.35 249.54,-139.74 419.21,-139.74 105.69,0 213.13,18.79 322.92,55.78 109.8,37.58 218.42,92.77 326.44,166.16 41.1,-97.46 85.14,-221.35 130.93,-371.66 45.8,-150.89 99.81,-351.1 161.46,-600.63 -143.26,-19.37 -251.88,-60.47 -325.86,-123.3 -73.98,-62.23 -110.97,-145.02 -110.97,-247.18 0,-74.57 16.44,-134.46 49.91,-179.67 33.47,-45.8 77.5,-69.87 132.69,-73.39 12.33,89.83 46.97,160.29 102.75,213.13 56.36,52.25 137.97,88.07 244.24,107.44 68.69,-231.92 164.98,-409.23 288.87,-531.35 123.89,-122.71 267.73,-183.78 431.54,-183.78 126.82,0 224.87,30.53 292.98,91.01 68.11,61.06 102.16,147.95 102.16,260.1 0,172.61 -70.46,320.57 -211.96,443.87 -141.5,123.3 -330.56,200.8 -566.58,231.92 -51.67,270.08 -108.62,496.71 -170.85,680.48 -62.82,183.19 -139.15,349.35 -229.57,497.89 91.59,76.33 194.93,136.8 310,183.19 115.67,45.79 229.57,71.63 343.47,77.5l-65.17 232.51 -19.37 0c-140.91,0 -274.78,-21.72 -401.6,-65.76 -126.23,-43.44 -248.35,-109.79 -365.19,-198.45zm-285.35 -197.86c-73.39,-55.19 -153.82,-97.46 -241.9,-127.41 -87.48,-29.94 -173.79,-44.62 -258.92,-44.62 -84.55,0 -153.24,17.61 -206.09,52.26 -52.84,35.23 -79.26,81.02 -79.26,136.8 0,59.89 28.19,106.86 84.55,140.92 55.78,33.46 133.87,50.49 233.68,50.49 91.59,0 174.96,-16.44 250.11,-49.91 75.15,-33.46 147.96,-86.31 217.83,-158.52zm950.57 -1534.76c126.23,-29.94 232.51,-85.72 318.22,-166.16 86.31,-81.02 129.17,-159.11 129.17,-234.85 0,-34.64 -9.98,-61.65 -29.94,-81.03 -19.96,-19.37 -47.56,-29.35 -81.61,-29.35 -69.28,0 -132.11,44.04 -190.23,132.69 -58.13,88.07 -106.27,214.3 -145.61,378.7zm2020.91 936.48c-109.8,103.33 -224.87,183.19 -344.65,239.55 -119.78,56.36 -234.85,84.55 -344.65,84.55 -123.88,0 -223.11,-39.93 -297.67,-119.78 -74.57,-79.85 -111.56,-186.7 -111.56,-320.57 0,-87.48 25.25,-198.45 75.74,-333.49 50.49,-134.46 122.71,-283 216.65,-444.46 -9.39,0.59 -21.72,2.35 -38.17,4.7 -46.97,5.87 -78.67,8.8 -96.29,8.8 -93.94,0 -167.92,-21.72 -221.35,-65.17 -54.02,-44.04 -81.03,-102.75 -81.03,-177.31 0,-14.09 2.94,-31.71 8.81,-52.84 5.28,-21.14 14.67,-48.15 27.59,-81.61 58.13,11.74 115.08,20.55 170.85,26.42 55.19,5.87 109.8,8.81 162.64,8.81 44.62,0 93.94,-2.94 148.54,-8.22 54.61,-5.28 119.78,-14.09 196.69,-27.01 114.49,-127.41 227.81,-223.11 340.54,-287.69 112.14,-64 221.93,-96.29 328.2,-96.29 83.96,0 148.54,20.55 194.93,62.24 46.38,41.09 69.87,99.22 69.87,173.79 0,112.14 -58.71,200.8 -175.56,265.97 -116.84,64.59 -324.68,119.77 -624.12,164.39 -88.07,147.96 -156.76,283 -205.5,405.12 -48.73,122.13 -72.8,216.65 -72.8,284.76 0,66.35 17.61,117.43 53.43,153.83 35.22,35.81 85.72,54.02 150.89,54.02 74.57,0 153.24,-22.9 234.85,-68.11 82.2,-45.21 162.05,-110.97 240.14,-196.69 76.91,-81.61 142.67,-167.33 198.45,-258.34 55.78,-90.42 92.77,-135.62 110.97,-135.62 56.36,0 111.55,16.44 166.15,49.9 54.61,33.46 81.61,65.76 81.61,98.05 0,20.55 -15.85,79.26 -48.15,175.55 -13.5,42.28 -24.66,76.33 -32.88,101.57 -44.62,140.91 -97.47,322.33 -157.94,544.27 -61.06,221.94 -103.33,372.24 -127.41,450.33 -106.86,329.97 -250.7,572.45 -432.71,726.87 -182.01,154.42 -412.75,231.33 -692.23,231.33 -190.82,0 -346.41,-41.1 -467.94,-123.3 -121.54,-81.61 -182.6,-184.36 -182.6,-307.07 0,-65.17 16.44,-120.95 49.91,-166.16 33.47,-45.21 77.5,-72.81 132.69,-83.37 50.49,115.07 109.8,197.28 178.49,246.59 68.11,49.32 154.41,73.98 258.34,73.98 234.27,0 423.32,-93.94 567.17,-281.24 143.85,-187.88 274.19,-521.37 391.03,-1001.06z"/>
 </g>
</svg>
