<?xml version="1.0" encoding="UTF-8"?>
<!DOCTYPE svg PUBLIC "-//W3C//DTD SVG 1.1//EN" "http://www.w3.org/Graphics/SVG/1.1/DTD/svg11.dtd">
<!-- Creator: CorelDRAW -->
<svg xmlns="http://www.w3.org/2000/svg" xml:space="preserve" width="1.31021in" height="1.04406in" version="1.1" style="shape-rendering:geometricPrecision; text-rendering:geometricPrecision; image-rendering:optimizeQuality; fill-rule:evenodd; clip-rule:evenodd"
viewBox="0 0 1310.21 1044.06"
 xmlns:xlink="http://www.w3.org/1999/xlink"
 xmlns:xodm="http://www.corel.com/coreldraw/odm/2003">
 <defs>
  <style type="text/css">
   <![CDATA[
    .fil1 {fill:url(#id0);fill-rule:nonzero}
    .fil0 {fill:url(#id1);fill-rule:nonzero}
   ]]>
  </style>
  <linearGradient id="id0" gradientUnits="userSpaceOnUse" x1="497.89" y1="282.75" x2="753.79" y2="715.21">
   <stop offset="0" style="stop-opacity:1; stop-color:white"/>
   <stop offset="1" style="stop-opacity:1; stop-color:#F1E5FC"/>
  </linearGradient>
  <linearGradient id="id1" gradientUnits="userSpaceOnUse" x1="1116.89" y1="-1155.65" x2="20070.92" y2="13897.33">
   <stop offset="0" style="stop-opacity:1; stop-color:#9013FE"/>
   <stop offset="1" style="stop-opacity:1; stop-color:#6610F2"/>
  </linearGradient>
 </defs>
 <g id="Layer_x0020_1">
  <metadata id="CorelCorpID_0Corel-Layer"/>
  <g id="_2094306938352">
   <path class="fil0" d="M144.54 136.47c-2.47,-70.99 52.83,-136.45 127.59,-136.45l766.04 0c74.76,0 130.06,65.46 127.59,136.45 -2.37,68.19 0.71,156.52 22.94,228.54 22.3,72.25 59.91,117.91 121.5,123.78l0 66.53c-61.59,5.87 -99.2,51.53 -121.5,123.78 -22.23,72.02 -25.31,160.35 -22.94,228.54 2.47,70.99 -52.83,136.44 -127.59,136.44l-766.04 0c-74.76,0 -130.06,-65.46 -127.59,-136.44 2.37,-68.19 -0.71,-156.52 -22.95,-228.54 -22.29,-72.24 -60,-117.91 -121.59,-123.78l0 -66.53c61.59,-5.87 99.3,-51.53 121.59,-123.78 22.24,-72.02 25.31,-160.35 22.95,-228.54z"/>
   <path class="fil1" d="M687.51 803.39c121.03,0 193.96,-59.26 193.96,-157 0,-73.89 -52.04,-127.37 -129.31,-135.84l0 -3.08c56.77,-9.24 101.32,-61.96 101.32,-120.83 0,-83.89 -66.23,-138.54 -167.16,-138.54l-227.08 0 0 555.3 228.26 -0zm-139.95 -484.87l117.48 0c63.87,0 100.13,28.48 100.13,80.04 0,55.03 -42.18,85.81 -118.67,85.81l-98.95 0 0 -165.86zm0 414.45l0 -182.79 116.69 0c83.58,0 126.94,30.78 126.94,90.82 0,60.03 -42.18,91.97 -121.82,91.97l-121.82 -0z" filter="url(#c)"/>
  </g>
 </g>
</svg>
