<?xml version="1.0" encoding="UTF-8"?>
<!DOCTYPE svg PUBLIC "-//W3C//DTD SVG 1.1//EN" "http://www.w3.org/Graphics/SVG/1.1/DTD/svg11.dtd">
<!-- Creator: CorelDRAW -->
<svg xmlns="http://www.w3.org/2000/svg" xml:space="preserve" width="6.825in" height="4.92126in" version="1.1" style="shape-rendering:geometricPrecision; text-rendering:geometricPrecision; image-rendering:optimizeQuality; fill-rule:evenodd; clip-rule:evenodd"
viewBox="0 0 6825 4921.26"
 xmlns:xlink="http://www.w3.org/1999/xlink"
 xmlns:xodm="http://www.corel.com/coreldraw/odm/2003">
 <defs>
  <style type="text/css">
   <![CDATA[
    .fil0 {fill:#D2D3D5}
   ]]>
  </style>
 </defs>
 <g id="Layer_x0020_1">
  <metadata id="CorelCorpID_0Corel-Layer"/>
  <g>
   <path class="fil0" d="M2290.64 4231.83c-155.74,228.7 -331.72,457.58 -509.44,669.58 -1291.44,-36.75 -1781.41,-874.96 -1781.41,-874.96 18.23,-1187.05 306.5,-2356.44 841.89,-3415.7 470.27,-368.03 1044.51,-581.26 1641.26,-609.06l174.99 404.23c249.53,-34.13 502.32,-52.98 754.42,-54.37 252.62,0.76 507.56,19.08 757.57,52.88l174.99 -404.23c596.93,28.96 1171.52,244.3 1641.25,614.1 533.66,1057.92 820.98,2227.3 838.22,3412 17.24,1184.7 -489.98,838.21 -1781.41,874.96 -176.74,-212.8 -347.87,-441.56 -502.87,-671.52 -335.94,108.22 -702.29,178.2 -1127.97,178.2 -422.94,0 -787.3,-69.07 -1121.48,-176.11 -407.54,-130.54 -770.19,-317.56 -1139.41,-504.61l1139.41 504.61zm3382.36 -504.61c-367.25,186.06 -728,372.07 -1132.91,502.52l1132.91 -502.52zm-2751.39 -885.46c0,-323.76 -262.46,-586.21 -586.21,-586.21 -323.76,0 -586.22,262.46 -586.22,586.21 0,323.76 262.46,586.22 586.22,586.22 323.75,0 586.21,-262.46 586.21,-586.22zm2153.44 0c0,-323.76 -262.46,-586.21 -586.22,-586.21 -323.76,0 -586.22,262.46 -586.22,586.21 0,323.76 262.46,586.22 586.22,586.22 323.76,0 586.22,-262.46 586.22,-586.22z"/>
  </g>
 </g>
</svg>
