<?xml version="1.0" encoding="UTF-8"?>
<!DOCTYPE svg PUBLIC "-//W3C//DTD SVG 1.1//EN" "http://www.w3.org/Graphics/SVG/1.1/DTD/svg11.dtd">
<!-- Creator: CorelDRAW -->
<svg xmlns="http://www.w3.org/2000/svg" xml:space="preserve" width="5.04724in" height="4.92126in" version="1.1" style="shape-rendering:geometricPrecision; text-rendering:geometricPrecision; image-rendering:optimizeQuality; fill-rule:evenodd; clip-rule:evenodd"
viewBox="0 0 5047.24 4921.26"
 xmlns:xlink="http://www.w3.org/1999/xlink"
 xmlns:xodm="http://www.corel.com/coreldraw/odm/2003">
 <defs>
  <style type="text/css">
   <![CDATA[
    .fil0 {fill:#D2D3D5}
   ]]>
  </style>
 </defs>
 <g id="Layer_x0020_1">
  <metadata id="CorelCorpID_0Corel-Layer"/>
  <path class="fil0" d="M2523.44 0.49c-1.02,0 -1.63,0 -1.94,0 -1392.8,0 -2522.32,1129.52 -2522.32,2522.32 0,1086.09 695.63,2050.56 1725.99,2393.3 126.7,23.46 172.46,-53.97 172.46,-117.32 0,-63.35 0,-218.21 0,-428.21 -703.9,152.51 -849.38,-337.87 -849.38,-337.87 -46.7,-155.12 -148.1,-288.19 -285.25,-374.24 -228.77,-156.03 17.6,-153.69 17.6,-153.69 161.86,22.57 304.41,118.83 385.98,260.41 225.25,385.98 586.59,274.53 734.41,210 11.66,-128.1 68.71,-248.01 160.75,-337.87 -560.78,-63.35 -1149.71,-279.22 -1149.71,-1245.91 0.01,-4.67 -0.11,-9.66 -0.11,-14.41 0,-245.78 93.09,-482.66 260.51,-662.54 -34.58,-97.06 -52.4,-199.69 -52.4,-302.87 0,-125.51 26.4,-249.92 77.11,-364.65 50.71,-114.73 211.17,-68.04 693.35,258.1 205.35,-56.03 418.09,-84.45 631.14,-84.45 213.04,0 425.79,28.43 631.21,84.4 482.18,-326.14 693.35,-258.1 693.35,-258.1 50.34,115 76.5,239.38 76.5,364.98 0,102.99 -17.63,205.64 -51.88,302.64 166.63,179.56 259.37,415.79 259.37,660.8 0,5.34 -0.12,10.91 -0.12,16.13 0,969.04 -586.59,1181.39 -1150.89,1244.74 110.88,112.3 173.14,264.03 173.14,421.91 0,15.76 -0.66,31.61 -1.83,47.3 0,336.7 0,608.88 0,692.17 0,83.3 45.75,145.48 173.63,117.32 1028.52,-343.97 1722.31,-1307.51 1722.31,-2392.07 0,-1392.8 -1129.52,-2522.32 -2522.97,-2522.32z"/>
 </g>
</svg>
