<?xml version="1.0" encoding="UTF-8"?>
<!DOCTYPE svg PUBLIC "-//W3C//DTD SVG 1.1//EN" "http://www.w3.org/Graphics/SVG/1.1/DTD/svg11.dtd">
<!-- Creator: CorelDRAW -->
<svg xmlns="http://www.w3.org/2000/svg" xml:space="preserve" width="6.55998in" height="4.92126in" version="1.1" style="shape-rendering:geometricPrecision; text-rendering:geometricPrecision; image-rendering:optimizeQuality; fill-rule:evenodd; clip-rule:evenodd"
viewBox="0 0 6559.98 4921.26"
 xmlns:xlink="http://www.w3.org/1999/xlink"
 xmlns:xodm="http://www.corel.com/coreldraw/odm/2003">
 <defs>
  <style type="text/css">
   <![CDATA[
    .fil0 {fill:#D2D3D5;fill-rule:nonzero}
    .fil1 {fill:#848688;fill-rule:nonzero}
   ]]>
  </style>
 </defs>
 <g id="Layer_x0020_1">
  <metadata id="CorelCorpID_0Corel-Layer"/>
  <path class="fil0" d="M446.89 4923.96l1043.64 0 0 -2534.52 -1490.91 -1118.19 0 3205.44c0,247.48 200.52,447.27 447.27,447.27z"/>
  <g>
   <path class="fil0" d="M5068.7 4923.96l1043.64 0c247.48,0 447.27,-200.52 447.27,-447.27l0 -3205.44 -1490.91 1118.19 0 2534.52zm0 0l0 0 0 0z"/>
  </g>
  <g>
   <path class="fil1" d="M5068.7 451.26l0 1938.18 1490.91 -1118.19 0 -596.37c0,-553.12 -631.39,-868.45 -1073.45,-536.72l-417.46 313.11zm0 0l0 0 0 0z"/>
  </g>
  <g>
   <path class="fil0" d="M1490.53 2389.44l0 -1938.18 1789.08 1341.81 1789.08 -1341.81 0 1938.18 -1789.08 1341.81 -1789.08 -1341.81zm0 0l0 0 0 0z"/>
  </g>
  <g>
   <path class="fil1" d="M-0.38 674.91l0 596.37 1490.91 1118.19 0 -1938.21 -417.46 -313.11c-442.79,-331.72 -1073.45,-16.4 -1073.45,536.72l0 0.03zm0 0l0 0 0 0z"/>
  </g>
 </g>
</svg>
