<?xml version="1.0" encoding="UTF-8"?>
<!DOCTYPE svg PUBLIC "-//W3C//DTD SVG 1.1//EN" "http://www.w3.org/Graphics/SVG/1.1/DTD/svg11.dtd">
<!-- Creator: CorelDRAW -->
<svg xmlns="http://www.w3.org/2000/svg" xml:space="preserve" width="4.92126in" height="4.92126in" version="1.1" style="shape-rendering:geometricPrecision; text-rendering:geometricPrecision; image-rendering:optimizeQuality; fill-rule:evenodd; clip-rule:evenodd"
viewBox="0 0 4921.26 4921.26"
 xmlns:xlink="http://www.w3.org/1999/xlink"
 xmlns:xodm="http://www.corel.com/coreldraw/odm/2003">
 <defs>
  <style type="text/css">
   <![CDATA[
    .fil0 {fill:#D2D3D5}
   ]]>
  </style>
 </defs>
 <g id="Layer_x0020_1">
  <metadata id="CorelCorpID_0Corel-Layer"/>
  <path class="fil0" d="M1181.1 0l2559.06 0c649.61,0 1181.1,531.5 1181.1,1181.1l0 2559.06c0,649.61 -531.5,1181.1 -1181.1,1181.1l-2559.06 0c-649.61,0 -1181.1,-531.5 -1181.1,-1181.1l0 -2559.06c0,-649.61 531.5,-1181.1 1181.1,-1181.1zm1279.53 3605.06c632.05,0 1144.43,-512.38 1144.43,-1144.43 0,-632.05 -512.38,-1144.43 -1144.43,-1144.43 -632.05,0 -1144.43,512.38 -1144.43,1144.43 0,632.05 512.38,1144.43 1144.43,1144.43zm1473.05 -2230.89c181.49,0 328.62,-147.13 328.62,-328.62 0,-181.49 -147.13,-328.62 -328.62,-328.62 -181.49,0 -328.62,147.13 -328.62,328.62 0,181.49 147.13,328.62 328.62,328.62z"/>
 </g>
</svg>
