<?xml version="1.0" encoding="UTF-8"?>
<!DOCTYPE svg PUBLIC "-//W3C//DTD SVG 1.1//EN" "http://www.w3.org/Graphics/SVG/1.1/DTD/svg11.dtd">
<!-- Creator: CorelDRAW -->
<svg xmlns="http://www.w3.org/2000/svg" xml:space="preserve" width="5.8659in" height="4.92126in" version="1.1" style="shape-rendering:geometricPrecision; text-rendering:geometricPrecision; image-rendering:optimizeQuality; fill-rule:evenodd; clip-rule:evenodd"
viewBox="0 0 5865.9 4921.26"
 xmlns:xlink="http://www.w3.org/1999/xlink"
 xmlns:xodm="http://www.corel.com/coreldraw/odm/2003">
 <defs>
  <style type="text/css">
   <![CDATA[
    .fil0 {fill:#D2D3D5}
   ]]>
  </style>
 </defs>
 <g id="Layer_x0020_1">
  <metadata id="CorelCorpID_0Corel-Layer"/>
  <path class="fil0" d="M5598.97 2.7c180.76,0 317.13,158.56 244.19,453.49l-884.79 4170.22c-61.84,296.52 -241.02,367.87 -488.37,229.92l-2110.48 -1558.68c-16.6,-11.91 -26.45,-31.1 -26.45,-51.54 0,-20.44 9.85,-39.62 26.45,-51.53l2437.11 -2200.86c110.99,-98.31 -23.79,-145.87 -169.67,-57.08l-3058.69 1929.72c-11.83,7.72 -25.7,11.84 -39.84,11.84 -8.02,0 -16,-1.33 -23.58,-3.92l-1298.64 -410.67c-288.58,-84.04 -288.58,-282.24 65.01,-423.37l5196.12 -2004.24c41.19,-19.73 85.97,-31.11 131.59,-33.28l0.02 -0.02z"/>
 </g>
</svg>
