<?xml version="1.0" encoding="UTF-8"?>
<!DOCTYPE svg PUBLIC "-//W3C//DTD SVG 1.1//EN" "http://www.w3.org/Graphics/SVG/1.1/DTD/svg11.dtd">
<!-- Creator: CorelDRAW -->
<svg xmlns="http://www.w3.org/2000/svg" xml:space="preserve" width="4.92126in" height="4.92126in" version="1.1" style="shape-rendering:geometricPrecision; text-rendering:geometricPrecision; image-rendering:optimizeQuality; fill-rule:evenodd; clip-rule:evenodd"
viewBox="0 0 4921.26 4921.26"
 xmlns:xlink="http://www.w3.org/1999/xlink"
 xmlns:xodm="http://www.corel.com/coreldraw/odm/2003">
 <defs>
  <style type="text/css">
   <![CDATA[
    .fil0 {fill:#D2D3D5;fill-rule:nonzero}
   ]]>
  </style>
 </defs>
 <g id="Layer_x0020_1">
  <metadata id="CorelCorpID_0Corel-Layer"/>
  <path class="fil0" d="M2193.5 16.4c-867.09,90.46 -1641.83,661.12 -1994.04,1468.7 -226.97,521.37 -264.75,1121.67 -103.59,1674.32 199.06,689.09 714.02,1271.27 1380.32,1562.44 521.53,226.9 1122.03,264.66 1674.88,103.55 827.46,-238.48 1479.01,-917.66 1692.87,-1761.45 333.93,-1322.29 -485.36,-2674.32 -1811.39,-2990 -291.27,-69.07 -547.79,-87.2 -839.06,-57.56zm32.91 1527.91c210.52,279.6 388.27,509.84 394.85,509.84 6.58,0 225.46,-230.26 483.69,-509.84l472.18 -509.85 268.16 -0.01 -57.57 60.92c-32.91,34.41 -246.78,266.33 -475.46,514.72 -228.69,248.35 -452.43,490.06 -496.91,534.52l-78.91 83.88 616.94 820.7c338.91,452.28 616.94,827.2 616.94,833.92 0,8.21 -202.3,13.09 -447.56,13.09l-449.07 -1.64 -417.88 -559.19c-287.91,-386.51 -422.81,-552.72 -435.97,-542.76 -9.87,8.22 -243.55,259.92 -519.88,559.19l-501.78 544.4 -126.75 0c-70.67,0 -128.25,-3.36 -128.25,-8.22 0,-4.87 261.58,-291.17 580.69,-634.85 317.62,-343.74 580.85,-631.56 584.05,-636.43 1.69,-6.71 -259.89,-363.54 -580.71,-792.8 -320.81,-427.62 -584.04,-781.22 -584.04,-784.57 0,-3.19 202.3,-4.87 450.78,-4.87l450.71 0 381.75 509.86zm-876.82 -289.47c6.56,11.51 421.04,567.42 917.95,1231.8l904.85 1210.51 202.3 1.68c125.07,0 200.78,-6.58 197.42,-16.45 -1.52,-8.22 -414.49,-564.06 -914.6,-1233.51l-911.57 -1217.07 -203.93 0.01c-169.39,0 -203.98,3.36 -192.39,23.03l-0.04 0z"/>
 </g>
</svg>
